<?xml version="1.0" encoding="utf-8"?>
<!-- Generator: Adobe Illustrator 21.1.0, SVG Export Plug-In . SVG Version: 6.00 Build 0)  -->
<svg version="1.1" id="图层_1" xmlns="http://www.w3.org/2000/svg" xmlns:xlink="http://www.w3.org/1999/xlink" x="0px" y="0px"
	 viewBox="0 0 595.3 595.3" style="enable-background:new 0 0 595.3 595.3;" xml:space="preserve">
<style type="text/css">
	.st0{fill:#FFFFFF;stroke:#B5B5B6;stroke-miterlimit:10;}
	.st1{fill:#7AA738;}
</style>
<g>
	<g>
		<path class="st0" d="M297.1,595.3C133.3,595.3,0,462.1,0,298.2C0,134.4,133.3,1.1,297.1,1.1s297.1,133.3,297.1,297.1
			C594.2,462,460.9,595.3,297.1,595.3z"/>
	</g>
	<g>
		<g>
			<path class="st1" d="M411.5,202.9c-0.3,64.8-53,117.2-117.9,117.1c-64.9-0.3-117.4-53.1-117.1-117.9
				c0.3-64.9,53.1-117.4,118-117.1C359.6,85,411.9,138,411.5,202.9z"/>
		</g>
	</g>
	<path class="st1" d="M351.2,351.1H239.5c-84.9,0-154.1,67.1-157.9,151c54.1,57.2,130.5,93.1,215.3,93.1
		c83.1,0,158.4-34.4,212.2-89.7C507.3,419.8,437.3,351.1,351.2,351.1z"/>
</g>
</svg>
