<?xml version="1.0" encoding="utf-8"?>
<!-- Generator: Adobe Illustrator 21.1.0, SVG Export Plug-In . SVG Version: 6.00 Build 0)  -->
<svg version="1.1" id="图层_1" xmlns="http://www.w3.org/2000/svg" xmlns:xlink="http://www.w3.org/1999/xlink" x="0px" y="0px"
	 viewBox="0 0 595.3 595.3" style="enable-background:new 0 0 595.3 595.3;" xml:space="preserve">
<style type="text/css">
	.st0{fill:#339CD1;}
</style>
<path class="st0" d="M586.3,127.9C568,53.8,513,6,445.9,6C395.3,6,343.2,33.6,298,84.1c-45.2-51-97.4-79-148.3-79
	C82.9,5.2,27.9,52.9,9.5,126.9c-27,109.1,26.5,278.3,251.3,434.6c6.8,4.9,13.9,9.5,21,14.3c3.2,2.1,6,4.2,9.2,6.3l5.9,3.9l6-3.8
	C554.6,421.3,614.3,242,586.3,127.9z M154.2,34.9C99.9,54,59.9,115.3,52.2,191.1c-5,49.3,3.2,99.5,22.9,148.5
	c-46.8-78.6-56.5-150.9-42.9-206C47.8,71.3,93.9,31,149.8,31c5,0,9.9,0.5,14.9,1.1C161.2,33,157.7,33.6,154.2,34.9z"/>
</svg>
