<svg id="图层_1" data-name="图层 1" xmlns="http://www.w3.org/2000/svg" viewBox="0 0 566.43 509.23"><defs><style>.cls-1{fill:#339cd1;}</style></defs><title>like2</title><path class="cls-1" d="M298.35,545.83l-6.82-4C51.51,400.49-5,243.6,22.22,143.88,40,78.7,93.3,36.59,158.06,36.59c48.45,0,98.2,23.91,141.32,67.62,43.12-43.28,92.73-67,140.94-67,64.95,0,118.31,42.25,135.94,107.6,27,99.9-30.07,256.68-271.08,397ZM158.06,63.55c-52.23,0-95.37,34.32-109.84,87.42-24.31,89.21,29,231.1,250.19,363.57C520.55,383,574.34,241.21,550.22,151.86c-14.33-53.24-57.49-87.63-109.89-87.63-44.3,0-90.82,24.4-131,68.68l-10,11.07-10-11.14C249.16,88.14,202.58,63.55,158.06,63.55Z" transform="translate(-15.97 -36.59)"/></svg>